<svg width="500" height="500" viewBox="0 0 500 500" fill="none" xmlns="http://www.w3.org/2000/svg">
<path d="M91 162.486C113.318 220.936 131.123 268.711 138.014 286.95C142.243 298.142 153.148 328.626 155.373 316.85C156.809 309.248 157.211 306.78 157.983 301.873C161.507 279.488 158.626 296.547 162.682 270.783C166.206 248.398 169.748 207.975 197.699 146.423C256.432 17.0892 379.409 107.714 395.655 158.273C404.68 186.362 436.418 286.153 346.517 377.365C256.616 468.576 165.709 391.642 155.373 347.872" stroke="hsl(350, 70%, 55%)" stroke-width="15" stroke-linecap="round"/>
<path d="M225 317.508C227.251 286.776 229.502 256.044 231.003 225.311C232.017 204.558 233.255 185.54 234.396 164.843C234.542 164.168 234.78 158.215 236.689 160.352C238.908 162.835 241.406 168.245 242.51 170.542C248.143 182.275 252.999 194.379 257.913 206.41C269.365 234.444 277.928 263.406 290.837 290.869C293.94 297.469 297.209 303.982 300.479 310.502C300.602 310.746 305.737 320.235 306.044 317.508C309.046 290.869 312.101 263.275 313.549 238.87C315.21 210.849 317.301 181.021 318.801 153" stroke="hsl(350, 70%, 55%)" stroke-width="15" stroke-linecap="round"/>
<path d="M73.0367 377.534C131.313 370.322 189.59 363.109 247.867 355.896C322.04 346.716 396.882 338.206 470.825 328" stroke="hsl(350, 70%, 55%)" stroke-width="15" stroke-linecap="round"/>
<path d="M186.832 315C186.573 315.777 185.46 319.979 186.322 320.6C187.17 321.211 188.334 321.145 189.127 320.244C189.794 319.488 190.249 318.481 189.852 317.041C189.272 314.933 188.074 315.214 186.953 315.214" stroke="hsl(350, 70%, 55%)" stroke-width="10" stroke-linecap="round"/>
</svg>